<svg width="140" height="140" viewBox="0 0 140 140" fill="none" xmlns="http://www.w3.org/2000/svg">
<path d="M67 97.5C67 88.3873 59.6127 81 50.5 81C46.914 81 43.5952 82.144 40.8886 84.0868C40.2859 84.5195 39.7134 84.9919 39.1752 85.5M67 97.5H60C60 92.2533 55.7467 88 50.5 88C45.2533 88 41 92.2533 41 97.5H34C34 93.9631 35.1129 90.686 37.0076 88C37.6457 87.0954 38.3724 86.2579 39.1752 85.5M67 97.5L105 59.5C105 50.3873 97.6127 43 88.5 43C84.1154 43 80.1302 44.7102 77.1752 47.5L39.1752 85.5" stroke="black" stroke-width="4"/>
</svg>
