<svg width="140" height="140" viewBox="0 0 140 140" fill="none" xmlns="http://www.w3.org/2000/svg">
<path d="M71.3248 122.5C70.522 123.258 69.7953 124.095 69.1572 125C67.2625 127.686 66.1496 130.963 66.1496 134.5H73.1496C73.1496 129.253 77.4029 125 82.6496 125C87.0311 125 90.7198 127.966 91.8172 132H98.9615M71.3248 122.5C71.8631 121.992 72.4355 121.52 73.0383 121.087C75.7449 119.144 79.0637 118 82.6496 118C90.9125 118 97.7567 124.074 98.9615 132M71.3248 122.5L109.325 84.5C112.28 81.7102 116.265 80 120.65 80C129.762 80 137.15 87.3873 137.15 96.5L101.65 132H98.9615M59.3248 134.5C59.3248 125.387 51.9375 118 42.8248 118C39.2388 118 35.92 119.144 33.2135 121.087C32.6107 121.52 32.0382 121.992 31.5 122.5M59.3248 134.5H52.3248C52.3248 129.253 48.0715 125 42.8248 125C37.5781 125 33.3248 129.253 33.3248 134.5H26.3248C26.3248 130.963 27.4377 127.686 29.3324 125C29.9705 124.095 30.6972 123.258 31.5 122.5M59.3248 134.5H67.8248M97.3248 96.5C97.3248 87.3873 89.9375 80 80.8248 80C76.4402 80 72.455 81.7102 69.5 84.5L31.5 122.5M3 118C12.1127 118 19.5 125.387 19.5 134.5M3 118V125C8.24671 125 12.5 129.253 12.5 134.5H19.5M3 118L42.5 80.0673C50.9098 80.8251 57.5 87.8929 57.5 96.5M19.5 134.5H28" stroke="black" stroke-width="4"/>
<path d="M105.716 45.6094C96.6555 44.6351 88.5207 51.1902 87.5464 60.2506C87.163 63.816 87.9455 67.2381 89.5878 70.1369C89.9536 70.7825 90.362 71.4022 90.8097 71.9917M105.716 45.6094L104.968 52.5693C99.7509 52.0083 95.0672 55.7824 94.5062 60.9991C93.9453 66.2157 97.7194 70.8994 102.936 71.4604L102.188 78.4202C98.6709 78.0421 95.5317 76.5852 93.0636 74.4141C92.2324 73.683 91.4774 72.8709 90.8097 71.9917M105.716 45.6094L71.9969 3.76422C62.9364 2.78987 54.8016 9.34496 53.8273 18.4054C53.3584 22.7649 54.6328 26.9101 57.0906 30.1465L90.8097 71.9917" stroke="black" stroke-width="4"/>
</svg>
